<svg width="298" height="60" viewBox="0 0 298 60" fill="none" xmlns="http://www.w3.org/2000/svg">
<rect opacity="0.8" width="14" height="14" transform="matrix(-1 -8.74228e-08 -8.74228e-08 1 70 14)" fill="#FF5C00"/>
<g filter="url(#filter0_b_1351_3577)">
<rect width="14" height="14" transform="matrix(-1 -8.74228e-08 -8.74228e-08 1 70 28)" fill="white" fill-opacity="0.48"/>
</g>
<g filter="url(#filter1_b_1351_3577)">
<rect width="14" height="14" transform="matrix(-1 -8.74228e-08 -8.74228e-08 1 14 0)" fill="white" fill-opacity="0.11"/>
</g>
<g filter="url(#filter2_b_1351_3577)">
<rect width="14" height="14" transform="matrix(-1 -8.74228e-08 -8.74228e-08 1 98 28)" fill="white" fill-opacity="0.11"/>
</g>
<rect opacity="0.9" width="14" height="14" transform="matrix(-1 -8.74228e-08 -8.74228e-08 1 56 14)" fill="#FF5C00"/>
<rect opacity="0.7" width="14" height="14" transform="matrix(-1 -8.74228e-08 -8.74228e-08 1 56 28)" fill="#FF5C00"/>
<rect opacity="0.8" width="14" height="14" transform="matrix(-1 -8.74228e-08 -8.74228e-08 1 42 14)" fill="#FF5C00"/>
<rect width="14" height="14" transform="matrix(-1 -8.74228e-08 -8.74228e-08 1 42 28)" fill="#FF5C00"/>
<rect width="14" height="14" transform="matrix(-1 -8.74228e-08 -8.74228e-08 1 56 41.9999)" fill="#FF5C00"/>
<g filter="url(#filter3_b_1351_3577)">
<rect width="14" height="14" transform="matrix(-1 -8.74228e-08 -8.74228e-08 1 28 14)" fill="white" fill-opacity="0.48"/>
</g>
<g filter="url(#filter4_b_1351_3577)">
<rect width="14" height="14" transform="matrix(-1 -8.74228e-08 -8.74228e-08 1 84 14)" fill="white" fill-opacity="0.48"/>
</g>
<g filter="url(#filter5_b_1351_3577)">
<rect width="14" height="14" transform="matrix(-1 -8.74228e-08 -8.74228e-08 1 14 28)" fill="white" fill-opacity="0.22"/>
</g>
<rect opacity="0.4" width="14" height="14" transform="matrix(-1 -8.74228e-08 -8.74228e-08 1 28 28)" fill="#FF5C00"/>
<path d="M69.676 56L80.908 30.8H86.668L97.936 56H91.816L82.6 33.752H84.904L75.652 56H69.676ZM75.292 50.6L76.84 46.172H89.8L91.384 50.6H75.292ZM100.155 56V36.632H105.771V56H100.155ZM102.963 33.932C101.931 33.932 101.091 33.632 100.443 33.032C99.7945 32.432 99.4705 31.688 99.4705 30.8C99.4705 29.912 99.7945 29.168 100.443 28.568C101.091 27.968 101.931 27.668 102.963 27.668C103.995 27.668 104.835 27.956 105.483 28.532C106.131 29.084 106.455 29.804 106.455 30.692C106.455 31.628 106.131 32.408 105.483 33.032C104.859 33.632 104.019 33.932 102.963 33.932Z" fill="#FF5C00"/>
<path d="M111.379 56V30.8H122.287C124.543 30.8 126.487 31.172 128.119 31.916C129.751 32.636 131.011 33.68 131.899 35.048C132.787 36.416 133.231 38.048 133.231 39.944C133.231 41.816 132.787 43.436 131.899 44.804C131.011 46.172 129.751 47.228 128.119 47.972C126.487 48.692 124.543 49.052 122.287 49.052H114.619L117.211 46.424V56H111.379ZM117.211 47.072L114.619 44.3H121.963C123.763 44.3 125.107 43.916 125.995 43.148C126.883 42.38 127.327 41.312 127.327 39.944C127.327 38.552 126.883 37.472 125.995 36.704C125.107 35.936 123.763 35.552 121.963 35.552H114.619L117.211 32.78V47.072ZM149.122 36.344C150.658 36.344 152.026 36.656 153.226 37.28C154.45 37.88 155.41 38.816 156.106 40.088C156.802 41.336 157.15 42.944 157.15 44.912V56H151.534V45.776C151.534 44.216 151.186 43.064 150.49 42.32C149.818 41.576 148.858 41.204 147.61 41.204C146.722 41.204 145.918 41.396 145.198 41.78C144.502 42.14 143.95 42.704 143.542 43.472C143.158 44.24 142.966 45.224 142.966 46.424V56H137.35V29.288H142.966V41.996L141.706 40.376C142.402 39.08 143.398 38.084 144.694 37.388C145.99 36.692 147.466 36.344 149.122 36.344ZM171.597 56.288C169.533 56.288 167.697 55.856 166.089 54.992C164.505 54.128 163.245 52.952 162.309 51.464C161.397 49.952 160.941 48.236 160.941 46.316C160.941 44.372 161.397 42.656 162.309 41.168C163.245 39.656 164.505 38.48 166.089 37.64C167.697 36.776 169.533 36.344 171.597 36.344C173.637 36.344 175.461 36.776 177.069 37.64C178.677 38.48 179.937 39.644 180.849 41.132C181.761 42.62 182.217 44.348 182.217 46.316C182.217 48.236 181.761 49.952 180.849 51.464C179.937 52.952 178.677 54.128 177.069 54.992C175.461 55.856 173.637 56.288 171.597 56.288ZM171.597 51.68C172.533 51.68 173.373 51.464 174.117 51.032C174.861 50.6 175.449 49.988 175.881 49.196C176.313 48.38 176.529 47.42 176.529 46.316C176.529 45.188 176.313 44.228 175.881 43.436C175.449 42.644 174.861 42.032 174.117 41.6C173.373 41.168 172.533 40.952 171.597 40.952C170.661 40.952 169.821 41.168 169.077 41.6C168.333 42.032 167.733 42.644 167.277 43.436C166.845 44.228 166.629 45.188 166.629 46.316C166.629 47.42 166.845 48.38 167.277 49.196C167.733 49.988 168.333 50.6 169.077 51.032C169.821 51.464 170.661 51.68 171.597 51.68ZM193.891 56.288C191.611 56.288 189.835 55.712 188.563 54.56C187.291 53.384 186.655 51.644 186.655 49.34V32.348H192.271V49.268C192.271 50.084 192.487 50.72 192.919 51.176C193.351 51.608 193.939 51.824 194.683 51.824C195.571 51.824 196.327 51.584 196.951 51.104L198.463 55.064C197.887 55.472 197.191 55.784 196.375 56C195.583 56.192 194.755 56.288 193.891 56.288ZM183.667 41.384V37.064H197.095V41.384H183.667ZM210.234 56.288C208.17 56.288 206.334 55.856 204.726 54.992C203.142 54.128 201.882 52.952 200.946 51.464C200.034 49.952 199.578 48.236 199.578 46.316C199.578 44.372 200.034 42.656 200.946 41.168C201.882 39.656 203.142 38.48 204.726 37.64C206.334 36.776 208.17 36.344 210.234 36.344C212.274 36.344 214.098 36.776 215.706 37.64C217.314 38.48 218.574 39.644 219.486 41.132C220.398 42.62 220.854 44.348 220.854 46.316C220.854 48.236 220.398 49.952 219.486 51.464C218.574 52.952 217.314 54.128 215.706 54.992C214.098 55.856 212.274 56.288 210.234 56.288ZM210.234 51.68C211.17 51.68 212.01 51.464 212.754 51.032C213.498 50.6 214.086 49.988 214.518 49.196C214.95 48.38 215.166 47.42 215.166 46.316C215.166 45.188 214.95 44.228 214.518 43.436C214.086 42.644 213.498 42.032 212.754 41.6C212.01 41.168 211.17 40.952 210.234 40.952C209.298 40.952 208.458 41.168 207.714 41.6C206.97 42.032 206.37 42.644 205.914 43.436C205.482 44.228 205.266 45.188 205.266 46.316C205.266 47.42 205.482 48.38 205.914 49.196C206.37 49.988 206.97 50.6 207.714 51.032C208.458 51.464 209.298 51.68 210.234 51.68ZM230.368 40.952H242.5V45.488H230.368V40.952ZM230.8 51.32H244.516V56H225.004V30.8H244.048V35.48H230.8V51.32ZM256.971 56.288C255.147 56.288 253.503 55.88 252.039 55.064C250.575 54.224 249.411 53.06 248.547 51.572C247.707 50.084 247.287 48.332 247.287 46.316C247.287 44.276 247.707 42.512 248.547 41.024C249.411 39.536 250.575 38.384 252.039 37.568C253.503 36.752 255.147 36.344 256.971 36.344C258.603 36.344 260.031 36.704 261.255 37.424C262.479 38.144 263.427 39.236 264.099 40.7C264.771 42.164 265.107 44.036 265.107 46.316C265.107 48.572 264.783 50.444 264.135 51.932C263.487 53.396 262.551 54.488 261.327 55.208C260.127 55.928 258.675 56.288 256.971 56.288ZM257.943 51.68C258.855 51.68 259.683 51.464 260.427 51.032C261.171 50.6 261.759 49.988 262.191 49.196C262.647 48.38 262.875 47.42 262.875 46.316C262.875 45.188 262.647 44.228 262.191 43.436C261.759 42.644 261.171 42.032 260.427 41.6C259.683 41.168 258.855 40.952 257.943 40.952C257.007 40.952 256.167 41.168 255.423 41.6C254.679 42.032 254.079 42.644 253.623 43.436C253.191 44.228 252.975 45.188 252.975 46.316C252.975 47.42 253.191 48.38 253.623 49.196C254.079 49.988 254.679 50.6 255.423 51.032C256.167 51.464 257.007 51.68 257.943 51.68ZM263.019 56V52.04L263.127 46.28L262.767 40.556V29.288H268.383V56H263.019ZM273.58 56V36.632H279.196V56H273.58ZM276.388 33.932C275.356 33.932 274.516 33.632 273.868 33.032C273.22 32.432 272.896 31.688 272.896 30.8C272.896 29.912 273.22 29.168 273.868 28.568C274.516 27.968 275.356 27.668 276.388 27.668C277.42 27.668 278.26 27.956 278.908 28.532C279.556 29.084 279.88 29.804 279.88 30.692C279.88 31.628 279.556 32.408 278.908 33.032C278.284 33.632 277.444 33.932 276.388 33.932ZM292.328 56.288C290.048 56.288 288.272 55.712 287 54.56C285.728 53.384 285.092 51.644 285.092 49.34V32.348H290.708V49.268C290.708 50.084 290.924 50.72 291.356 51.176C291.788 51.608 292.376 51.824 293.12 51.824C294.008 51.824 294.764 51.584 295.388 51.104L296.9 55.064C296.324 55.472 295.628 55.784 294.812 56C294.02 56.192 293.192 56.288 292.328 56.288ZM282.104 41.384V37.064H295.532V41.384H282.104Z" fill="black"/>
<defs>
<filter id="filter0_b_1351_3577" x="52" y="24" width="22" height="22" filterUnits="userSpaceOnUse" color-interpolation-filters="sRGB">
<feFlood flood-opacity="0" result="BackgroundImageFix"/>
<feGaussianBlur in="BackgroundImageFix" stdDeviation="2"/>
<feComposite in2="SourceAlpha" operator="in" result="effect1_backgroundBlur_1351_3577"/>
<feBlend mode="normal" in="SourceGraphic" in2="effect1_backgroundBlur_1351_3577" result="shape"/>
</filter>
<filter id="filter1_b_1351_3577" x="-4" y="-4" width="22" height="22" filterUnits="userSpaceOnUse" color-interpolation-filters="sRGB">
<feFlood flood-opacity="0" result="BackgroundImageFix"/>
<feGaussianBlur in="BackgroundImageFix" stdDeviation="2"/>
<feComposite in2="SourceAlpha" operator="in" result="effect1_backgroundBlur_1351_3577"/>
<feBlend mode="normal" in="SourceGraphic" in2="effect1_backgroundBlur_1351_3577" result="shape"/>
</filter>
<filter id="filter2_b_1351_3577" x="80" y="24" width="22" height="22" filterUnits="userSpaceOnUse" color-interpolation-filters="sRGB">
<feFlood flood-opacity="0" result="BackgroundImageFix"/>
<feGaussianBlur in="BackgroundImageFix" stdDeviation="2"/>
<feComposite in2="SourceAlpha" operator="in" result="effect1_backgroundBlur_1351_3577"/>
<feBlend mode="normal" in="SourceGraphic" in2="effect1_backgroundBlur_1351_3577" result="shape"/>
</filter>
<filter id="filter3_b_1351_3577" x="10" y="10" width="22" height="22" filterUnits="userSpaceOnUse" color-interpolation-filters="sRGB">
<feFlood flood-opacity="0" result="BackgroundImageFix"/>
<feGaussianBlur in="BackgroundImageFix" stdDeviation="2"/>
<feComposite in2="SourceAlpha" operator="in" result="effect1_backgroundBlur_1351_3577"/>
<feBlend mode="normal" in="SourceGraphic" in2="effect1_backgroundBlur_1351_3577" result="shape"/>
</filter>
<filter id="filter4_b_1351_3577" x="66" y="10" width="22" height="22" filterUnits="userSpaceOnUse" color-interpolation-filters="sRGB">
<feFlood flood-opacity="0" result="BackgroundImageFix"/>
<feGaussianBlur in="BackgroundImageFix" stdDeviation="2"/>
<feComposite in2="SourceAlpha" operator="in" result="effect1_backgroundBlur_1351_3577"/>
<feBlend mode="normal" in="SourceGraphic" in2="effect1_backgroundBlur_1351_3577" result="shape"/>
</filter>
<filter id="filter5_b_1351_3577" x="-4" y="24" width="22" height="22" filterUnits="userSpaceOnUse" color-interpolation-filters="sRGB">
<feFlood flood-opacity="0" result="BackgroundImageFix"/>
<feGaussianBlur in="BackgroundImageFix" stdDeviation="2"/>
<feComposite in2="SourceAlpha" operator="in" result="effect1_backgroundBlur_1351_3577"/>
<feBlend mode="normal" in="SourceGraphic" in2="effect1_backgroundBlur_1351_3577" result="shape"/>
</filter>
</defs>
</svg>
