<svg width="48" height="48" viewBox="0 0 48 48" fill="none" xmlns="http://www.w3.org/2000/svg">
<path d="M0 24C0 10.7452 10.7452 0 24 0C37.2548 0 48 10.7452 48 24C48 37.2548 37.2548 48 24 48C10.7452 48 0 37.2548 0 24Z" fill="#FF5C00" fill-opacity="0.5"/>
<path d="M20.7695 23.4697C20.4766 23.7626 20.4766 24.2374 20.7695 24.5303L25.5424 29.3033C25.8353 29.5962 26.3102 29.5962 26.6031 29.3033C26.896 29.0104 26.896 28.5355 26.6031 28.2426L22.3605 24L26.6031 19.7574C26.896 19.4645 26.896 18.9896 26.6031 18.6967C26.3102 18.4038 25.8353 18.4038 25.5424 18.6967L20.7695 23.4697ZM22.7998 23.25H21.2998V24.75H22.7998V23.25Z" fill="white"/>
</svg>
