<svg width="40" height="40" viewBox="0 0 40 40" fill="none" xmlns="http://www.w3.org/2000/svg">
<path d="M10.5817 18.3333H5C4.55797 18.3333 4.13405 18.5089 3.82149 18.8215C3.50893 19.1341 3.33333 19.558 3.33333 20V25H0V20C0 18.6739 0.526784 17.4022 1.46447 16.4645C2.40215 15.5268 3.67392 15 5 15H12.5617C11.6897 15.9707 11.017 17.1033 10.5817 18.3333ZM35 15H27.4383C28.3103 15.9707 28.983 17.1033 29.4183 18.3333H35C35.442 18.3333 35.866 18.5089 36.1785 18.8215C36.4911 19.1341 36.6667 19.558 36.6667 20V25H40V20C40 18.6739 39.4732 17.4022 38.5355 16.4645C37.5979 15.5268 36.3261 15 35 15ZM26.6667 21.6667C26.6667 20.3481 26.2757 19.0592 25.5431 17.9629C24.8106 16.8665 23.7694 16.0121 22.5512 15.5075C21.333 15.0029 19.9926 14.8709 18.6994 15.1281C17.4062 15.3853 16.2183 16.0203 15.286 16.9526C14.3536 17.885 13.7187 19.0729 13.4614 20.3661C13.2042 21.6593 13.3362 22.9997 13.8408 24.2179C14.3454 25.4361 15.1999 26.4773 16.2962 27.2098C17.3925 27.9423 18.6815 28.3333 20 28.3333C21.7681 28.3333 23.4638 27.631 24.714 26.3807C25.9643 25.1305 26.6667 23.4348 26.6667 21.6667ZM23.3333 21.6667C23.3333 22.3259 23.1378 22.9704 22.7716 23.5186C22.4053 24.0667 21.8847 24.494 21.2756 24.7463C20.6665 24.9986 19.9963 25.0646 19.3497 24.936C18.7031 24.8073 18.1092 24.4899 17.643 24.0237C17.1768 23.5575 16.8593 22.9636 16.7307 22.317C16.6021 21.6704 16.6681 21.0001 16.9204 20.3911C17.1727 19.782 17.5999 19.2614 18.1481 18.8951C18.6963 18.5288 19.3407 18.3333 20 18.3333C20.8841 18.3333 21.7319 18.6845 22.357 19.3097C22.9821 19.9348 23.3333 20.7826 23.3333 21.6667ZM30 35C30 33.6739 29.4732 32.4022 28.5355 31.4645C27.5979 30.5268 26.3261 30 25 30H15C13.6739 30 12.4021 30.5268 11.4645 31.4645C10.5268 32.4022 10 33.6739 10 35V40H13.3333V35C13.3333 34.558 13.5089 34.1341 13.8215 33.8215C14.134 33.5089 14.558 33.3333 15 33.3333H25C25.442 33.3333 25.8659 33.5089 26.1785 33.8215C26.4911 34.1341 26.6667 34.558 26.6667 35V40H30V35ZM36.6667 6.66667C36.6667 5.34813 36.2757 4.0592 35.5431 2.96287C34.8106 1.86654 33.7694 1.01206 32.5512 0.507473C31.333 0.00288854 29.9926 -0.129134 28.6994 0.128101C27.4062 0.385336 26.2183 1.02027 25.286 1.95262C24.3536 2.88497 23.7187 4.07286 23.4614 5.36607C23.2042 6.65928 23.3362 7.99972 23.8408 9.21789C24.3454 10.4361 25.1999 11.4773 26.2962 12.2098C27.3925 12.9423 28.6815 13.3333 30 13.3333C31.7681 13.3333 33.4638 12.631 34.714 11.3807C35.9643 10.1305 36.6667 8.43478 36.6667 6.66667ZM33.3333 6.66667C33.3333 7.32594 33.1378 7.97041 32.7716 8.51857C32.4053 9.06674 31.8847 9.49398 31.2756 9.74627C30.6665 9.99856 29.9963 10.0646 29.3497 9.93596C28.7031 9.80734 28.1092 9.48987 27.643 9.02369C27.1768 8.55752 26.8593 7.96358 26.7307 7.31697C26.6021 6.67037 26.6681 6.00015 26.9204 5.39106C27.1727 4.78197 27.5999 4.26138 28.1481 3.8951C28.6963 3.52883 29.3407 3.33334 30 3.33334C30.8841 3.33334 31.7319 3.68453 32.357 4.30965C32.9821 4.93477 33.3333 5.78262 33.3333 6.66667ZM16.6667 6.66667C16.6667 5.34813 16.2757 4.0592 15.5431 2.96287C14.8106 1.86654 13.7694 1.01206 12.5512 0.507473C11.333 0.00288854 9.9926 -0.129134 8.6994 0.128101C7.40619 0.385336 6.2183 1.02027 5.28595 1.95262C4.3536 2.88497 3.71867 4.07286 3.46143 5.36607C3.2042 6.65928 3.33622 7.99972 3.8408 9.21789C4.34539 10.4361 5.19987 11.4773 6.2962 12.2098C7.39253 12.9423 8.68146 13.3333 10 13.3333C11.7681 13.3333 13.4638 12.631 14.714 11.3807C15.9643 10.1305 16.6667 8.43478 16.6667 6.66667ZM13.3333 6.66667C13.3333 7.32594 13.1378 7.97041 12.7716 8.51857C12.4053 9.06674 11.8847 9.49398 11.2756 9.74627C10.6665 9.99856 9.9963 10.0646 9.3497 9.93596C8.7031 9.80734 8.10915 9.48987 7.64298 9.02369C7.1768 8.55752 6.85933 7.96358 6.73072 7.31697C6.6021 6.67037 6.66811 6.00015 6.9204 5.39106C7.17269 4.78197 7.59994 4.26138 8.1481 3.8951C8.69626 3.52883 9.34073 3.33334 10 3.33334C10.8841 3.33334 11.7319 3.68453 12.357 4.30965C12.9821 4.93477 13.3333 5.78262 13.3333 6.66667Z" fill="black"/>
</svg>
