<svg width="40" height="40" viewBox="0 0 40 40" fill="none" xmlns="http://www.w3.org/2000/svg">
<g clip-path="url(#clip0_2019_1457)">
<path d="M31.6667 0H8.33333C6.12401 0.00264643 4.00593 0.88147 2.4437 2.4437C0.88147 4.00593 0.00264643 6.12401 0 8.33333L0 31.6667C0.00264643 33.876 0.88147 35.9941 2.4437 37.5563C4.00593 39.1185 6.12401 39.9974 8.33333 40H31.6667C33.876 39.9974 35.9941 39.1185 37.5563 37.5563C39.1185 35.9941 39.9974 33.876 40 31.6667V8.33333C39.9974 6.12401 39.1185 4.00593 37.5563 2.4437C35.9941 0.88147 33.876 0.00264643 31.6667 0V0ZM8.33333 3.33333H31.6667C32.9927 3.33333 34.2645 3.86012 35.2022 4.7978C36.1399 5.73548 36.6667 7.00725 36.6667 8.33333V31.6667C36.6638 32.4091 36.4929 33.1413 36.1667 33.8083L20.895 18.5367C20.1211 17.7626 19.2024 17.1486 18.1912 16.7297C17.18 16.3107 16.0962 16.0951 15.0017 16.0951C13.9071 16.0951 12.8233 16.3107 11.8121 16.7297C10.8009 17.1486 9.88218 17.7626 9.10833 18.5367L3.33333 24.31V8.33333C3.33333 7.00725 3.86012 5.73548 4.7978 4.7978C5.73548 3.86012 7.00725 3.33333 8.33333 3.33333ZM8.33333 36.6667C7.00725 36.6667 5.73548 36.1399 4.7978 35.2022C3.86012 34.2645 3.33333 32.9927 3.33333 31.6667V29.0233L11.4633 20.8933C11.9277 20.4287 12.479 20.0601 13.0858 19.8086C13.6927 19.5572 14.3431 19.4277 15 19.4277C15.6569 19.4277 16.3073 19.5572 16.9142 19.8086C17.521 20.0601 18.0723 20.4287 18.5367 20.8933L33.8083 36.1667C33.1413 36.4929 32.4091 36.6638 31.6667 36.6667H8.33333Z" fill="black"/>
<path d="M26.6663 17.4999C27.8201 17.4999 28.9479 17.1578 29.9072 16.5168C30.8665 15.8759 31.6141 14.9648 32.0556 13.8989C32.4971 12.833 32.6127 11.6601 32.3876 10.5286C32.1625 9.39701 31.6069 8.35761 30.7911 7.5418C29.9753 6.72599 28.9359 6.17042 27.8044 5.94534C26.6728 5.72026 25.4999 5.83578 24.434 6.27729C23.3681 6.7188 22.4571 7.46648 21.8161 8.42576C21.1751 9.38505 20.833 10.5129 20.833 11.6666C20.833 13.2137 21.4476 14.6974 22.5416 15.7914C23.6355 16.8853 25.1192 17.4999 26.6663 17.4999ZM26.6663 9.16659C27.1608 9.16659 27.6441 9.31321 28.0553 9.58791C28.4664 9.86262 28.7868 10.2531 28.976 10.7099C29.1653 11.1667 29.2148 11.6694 29.1183 12.1543C29.0218 12.6393 28.7837 13.0847 28.4341 13.4344C28.0845 13.784 27.639 14.0221 27.1541 14.1186C26.6691 14.215 26.1664 14.1655 25.7096 13.9763C25.2528 13.7871 24.8624 13.4666 24.5877 13.0555C24.313 12.6444 24.1663 12.161 24.1663 11.6666C24.1663 11.0035 24.4297 10.3677 24.8986 9.89882C25.3674 9.42998 26.0033 9.16659 26.6663 9.16659Z" fill="black"/>
</g>
<defs>
<clipPath id="clip0_2019_1457">
<rect width="40" height="40" fill="white"/>
</clipPath>
</defs>
</svg>
