<svg width="44" height="43" viewBox="0 0 44 43" fill="none" xmlns="http://www.w3.org/2000/svg">
<path d="M43.6992 16.1224C43.3242 14.9287 42.575 13.8874 41.5624 13.1524C40.5498 12.4175 39.3275 12.0279 38.0764 12.0414H30.0665L27.6337 4.45868C27.2511 3.26511 26.4994 2.22388 25.4868 1.48514C24.4743 0.746399 23.2533 0.348328 21.9999 0.348328C20.7465 0.348328 19.5255 0.746399 18.5129 1.48514C17.5004 2.22388 16.7486 3.26511 16.366 4.45868L13.9332 12.0414H5.92337C4.67623 12.0431 3.46155 12.439 2.45283 13.1723C1.44411 13.9057 0.69294 14.9391 0.306621 16.1249C-0.0796975 17.3107 -0.0814074 18.5882 0.301736 19.7751C0.684879 20.9619 1.43328 21.9973 2.44003 22.7334L8.95937 27.5L6.4807 35.1762C6.08014 36.3667 6.07506 37.6549 6.46623 38.8485C6.8574 40.0422 7.62387 41.0775 8.65137 41.8C9.66126 42.5458 10.8851 42.9453 12.1405 42.939C13.3959 42.9327 14.6156 42.521 15.618 41.7652L21.9999 37.0682L28.3835 41.7597C29.3916 42.5012 30.6088 42.9039 31.8602 42.91C33.1116 42.9161 34.3327 42.5253 35.3479 41.7936C36.3632 41.062 37.1203 40.0273 37.5104 38.8382C37.9005 37.6492 37.9035 36.3671 37.519 35.1762L35.0404 27.5L41.567 22.7334C42.5853 22.0065 43.3425 20.9711 43.7265 19.7805C44.1105 18.5898 44.1009 17.3072 43.6992 16.1224ZM39.4037 19.7725L31.8064 25.3257C31.4943 25.5533 31.2621 25.8737 31.143 26.2411C31.0238 26.6085 31.0237 27.0042 31.1427 27.3717L34.0302 36.3C34.1763 36.7529 34.1751 37.2404 34.0266 37.6925C33.8782 38.1446 33.5903 38.5379 33.2042 38.816C32.8181 39.0942 32.3537 39.2427 31.8779 39.2402C31.4021 39.2378 30.9393 39.0846 30.556 38.8025L23.0852 33.3025C22.7705 33.0714 22.3903 32.9467 21.9999 32.9467C21.6094 32.9467 21.2292 33.0714 20.9145 33.3025L13.4437 38.8025C13.0607 39.0884 12.5966 39.2448 12.1187 39.2491C11.6408 39.2535 11.1739 39.1055 10.7858 38.8266C10.3976 38.5478 10.1084 38.1526 9.95999 37.6983C9.81158 37.244 9.81171 36.7542 9.96037 36.3L12.857 27.3717C12.976 27.0042 12.976 26.6085 12.8568 26.2411C12.7376 25.8737 12.5054 25.5533 12.1934 25.3257L4.59603 19.7725C4.21342 19.4924 3.92913 19.0985 3.78376 18.6471C3.63839 18.1957 3.63938 17.71 3.78659 17.2592C3.9338 16.8084 4.21969 16.4157 4.60344 16.1371C4.98719 15.8585 5.44916 15.7084 5.92337 15.708H15.2734C15.6615 15.708 16.0396 15.5848 16.3533 15.3562C16.6669 15.1275 16.8999 14.8052 17.0187 14.4357L19.8604 5.57885C20.0062 5.12562 20.2921 4.73037 20.6769 4.44997C21.0617 4.16958 21.5256 4.01851 22.0017 4.01851C22.4778 4.01851 22.9417 4.16958 23.3265 4.44997C23.7113 4.73037 23.9972 5.12562 24.143 5.57885L26.9847 14.4357C27.1035 14.8052 27.3365 15.1275 27.6501 15.3562C27.9638 15.5848 28.3419 15.708 28.73 15.708H38.08C38.5542 15.7084 39.0162 15.8585 39.4 16.1371C39.7837 16.4157 40.0696 16.8084 40.2168 17.2592C40.364 17.71 40.365 18.1957 40.2196 18.6471C40.0743 19.0985 39.79 19.4924 39.4074 19.7725H39.4037Z" fill="black"/>
</svg>
