<svg width="24" height="24" viewBox="0 0 24 24" fill="none" xmlns="http://www.w3.org/2000/svg">
<g clip-path="url(#clip0_1351_4016)">
<path d="M10.2268 2.10181L0.27352 19.3402C0.0937283 19.6515 -0.000943287 20.0046 -0.000976554 20.3641C-0.00100982 20.7236 0.0935964 21.0768 0.273331 21.3881C0.453065 21.6995 0.711593 21.958 1.02292 22.1377C1.33426 22.3175 1.68742 22.4121 2.04691 22.412H21.9519C22.3114 22.4121 22.6646 22.3175 22.9759 22.1377C23.2872 21.958 23.5458 21.6995 23.7255 21.3881C23.9052 21.0768 23.9998 20.7236 23.9998 20.3641C23.9998 20.0046 23.9051 19.6515 23.7253 19.3402L13.7731 2.10181C13.5934 1.79057 13.3349 1.53211 13.0237 1.35242C12.7124 1.17273 12.3593 1.07812 12 1.07812C11.6406 1.07812 11.2875 1.17273 10.9762 1.35242C10.665 1.53211 10.4065 1.79057 10.2268 2.10181Z" fill="#FFB400"/>
<path d="M12.1299 7.41846H11.8703C11.2311 7.41846 10.7129 7.93665 10.7129 8.57587V14.1081C10.7129 14.7474 11.2311 15.2656 11.8703 15.2656H12.1299C12.7692 15.2656 13.2874 14.7474 13.2874 14.1081V8.57587C13.2874 7.93665 12.7692 7.41846 12.1299 7.41846Z" fill="#FCF4D9"/>
<path d="M12.0001 19.6531C12.711 19.6531 13.2874 19.0768 13.2874 18.3658C13.2874 17.6549 12.711 17.0786 12.0001 17.0786C11.2892 17.0786 10.7129 17.6549 10.7129 18.3658C10.7129 19.0768 11.2892 19.6531 12.0001 19.6531Z" fill="#FCF4D9"/>
</g>
<defs>
<clipPath id="clip0_1351_4016">
<rect width="24" height="24" fill="white"/>
</clipPath>
</defs>
</svg>
