<svg width="80" height="80" viewBox="0 0 80 80" fill="none" xmlns="http://www.w3.org/2000/svg">
<g clip-path="url(#clip0_1243_1421)">
<path d="M79.8458 43.6954C79.1275 36.4706 75.8998 29.6594 70.7569 24.5164C66.3618 20.1215 60.9824 17.2972 55.322 16.0414V12.0713C57.6339 11.4962 59.3523 9.40348 59.3523 6.9161C59.3523 3.98668 56.9692 1.60352 54.0398 1.60352H42.7896C39.8602 1.60352 37.477 3.98668 37.477 6.9161C37.477 9.40332 39.1955 11.496 41.5072 12.0713V16.0525C35.8642 17.3136 30.5025 20.134 26.1199 24.5165C25.1609 25.4756 24.2765 26.4817 23.4669 27.5274C23.4277 27.5244 23.3885 27.5214 23.3485 27.5214H12.2138C11.351 27.5214 10.6513 28.221 10.6513 29.0839C10.6513 29.9469 11.351 30.6465 12.2138 30.6465H21.3408C20.1952 32.5645 19.2714 34.5787 18.5683 36.6522H1.56252C0.699698 36.6522 0 37.3517 0 38.2147C0 39.0777 0.699698 39.7772 1.56252 39.7772H17.6853C17.235 41.754 16.9765 43.7657 16.9098 45.7831H10.0002C9.13733 45.7831 8.43763 46.4827 8.43763 47.3456C8.43763 48.2086 9.13733 48.9082 10.0002 48.9082H16.9596C17.0915 50.9307 17.4167 52.9426 17.9353 54.914H7.81262C6.9498 54.914 6.2501 55.6136 6.2501 56.4766C6.2501 57.3395 6.9498 58.0391 7.81262 58.0391H18.9325C20.4653 62.094 22.8608 65.8945 26.1199 69.1536C31.2678 74.3015 38.0861 77.53 45.3184 78.2446C46.3506 78.3464 47.3836 78.3969 48.4151 78.3969C54.5124 78.3969 60.5322 76.6323 65.6401 73.306C66.3632 72.8351 66.5678 71.8671 66.0968 71.144C65.6259 70.4208 64.6579 70.2163 63.9347 70.6872C52.7538 77.9681 37.7797 76.3939 28.3297 66.9439C17.2417 55.8559 17.2417 37.8145 28.3297 26.7264C39.4175 15.6386 57.4589 15.6386 68.547 26.7264C77.9845 36.1641 79.5673 51.1254 72.3105 62.3009C71.8405 63.0246 72.0463 63.9925 72.7699 64.4623C73.494 64.9323 74.4615 64.7265 74.9313 64.0028C78.8086 58.0316 80.5539 50.8198 79.8458 43.6954ZM40.602 6.91625C40.602 5.70999 41.5833 4.72872 42.7896 4.72872H54.0398C55.246 4.72872 56.2273 5.70999 56.2273 6.91625C56.2273 8.12252 55.246 9.10379 54.0398 9.10379H53.7594H43.0697H42.7896C41.5833 9.10379 40.602 8.12237 40.602 6.91625ZM44.6323 15.5153V12.2288H52.1969V15.5097C49.685 15.2109 47.1437 15.2128 44.6323 15.5153Z" fill="#FF5C00"/>
<path d="M69.6526 66.4854C69.2401 66.4854 68.8385 66.6525 68.5481 66.9432C68.2559 67.2338 68.0901 67.6369 68.0901 68.0479C68.0901 68.4588 68.2559 68.8619 68.5481 69.1526C68.8385 69.4447 69.2402 69.6104 69.6526 69.6104C70.0635 69.6104 70.4651 69.4447 70.7573 69.1526C71.0479 68.8619 71.2151 68.4588 71.2151 68.0479C71.2151 67.6369 71.0481 67.2338 70.7573 66.9432C70.4651 66.6525 70.0634 66.4854 69.6526 66.4854Z" fill="#FF5C00"/>
<path d="M48.4385 22.5957C35.073 22.5957 24.1992 33.4693 24.1992 46.835C24.1992 60.2007 35.073 71.0743 48.4385 71.0743C61.804 71.0743 72.6778 60.2007 72.6778 46.835C72.6778 33.4693 61.804 22.5957 48.4385 22.5957ZM48.4385 67.9492C36.796 67.9492 27.3243 58.4774 27.3243 46.835C27.3243 35.1926 36.796 25.7208 48.4385 25.7208C60.081 25.7208 69.5527 35.1926 69.5527 46.835C69.5527 58.4774 60.081 67.9492 48.4385 67.9492Z" fill="#FF5C00"/>
<path d="M58.3224 34.7408L50.5832 42.4799C49.936 42.1599 49.208 41.9791 48.4385 41.9791C47.6688 41.9791 46.9409 42.1599 46.2937 42.4799L42.8301 39.0162C42.2198 38.406 41.2307 38.406 40.6202 39.0162C40.0101 39.6264 40.0101 40.6158 40.6202 41.2259L44.0839 44.6896C43.7637 45.3368 43.5831 46.0648 43.5831 46.8343C43.5831 49.5115 45.7611 51.6897 48.4385 51.6897C51.1159 51.6897 53.2939 49.5115 53.2939 46.8343C53.2939 46.0648 53.1131 45.3368 52.7931 44.6896L60.3051 37.1776L60.5321 36.9506C61.1423 36.3404 61.1423 35.351 60.5321 34.7408C59.9219 34.1307 58.9328 34.1307 58.3224 34.7408ZM48.4385 48.5648C47.4844 48.5648 46.7081 47.7885 46.7081 46.8345C46.7081 45.8804 47.4844 45.1041 48.4385 45.1041C49.3925 45.1041 50.1688 45.8804 50.1688 46.8345C50.1688 47.7885 49.3925 48.5648 48.4385 48.5648Z" fill="#FF5C00"/>
<path d="M65.1447 45.291H63.697C62.8342 45.291 62.1345 45.9905 62.1345 46.8535C62.1345 47.7165 62.8342 48.416 63.697 48.416H65.1447C66.0075 48.416 66.7072 47.7165 66.7072 46.8535C66.7072 45.9905 66.0075 45.291 65.1447 45.291Z" fill="#FF5C00"/>
<path d="M33.1794 45.2529H31.7319C30.8691 45.2529 30.1694 45.9525 30.1694 46.8154C30.1694 47.6784 30.8691 48.3779 31.7319 48.3779H33.1794C34.0422 48.3779 34.7419 47.6784 34.7419 46.8154C34.7419 45.9525 34.0422 45.2529 33.1794 45.2529Z" fill="#FF5C00"/>
<path d="M48.4575 33.1389C49.3203 33.1389 50.02 32.4394 50.02 31.5764V30.1289C50.02 29.2659 49.3203 28.5664 48.4575 28.5664C47.5947 28.5664 46.895 29.2659 46.895 30.1289V31.5764C46.895 32.4394 47.5947 33.1389 48.4575 33.1389Z" fill="#FF5C00"/>
<path d="M48.4194 60.5312C47.5566 60.5312 46.8569 61.2308 46.8569 62.0938V63.5413C46.8569 64.4042 47.5566 65.1038 48.4194 65.1038C49.2822 65.1038 49.9819 64.4042 49.9819 63.5413V62.0938C49.9819 61.2308 49.2822 60.5312 48.4194 60.5312Z" fill="#FF5C00"/>
<path d="M1.5625 54.9131C1.15156 54.9131 0.748438 55.0803 0.457813 55.3709C0.167188 55.6615 0 56.0646 0 56.4756C0 56.8881 0.167031 57.2896 0.457813 57.5803C0.748594 57.8709 1.15156 58.0381 1.5625 58.0381C1.97344 58.0381 2.37656 57.8709 2.66703 57.5803C2.95766 57.2896 3.125 56.8865 3.125 56.4756C3.125 56.0646 2.95781 55.6615 2.66703 55.3709C2.37656 55.0803 1.97344 54.9131 1.5625 54.9131Z" fill="#FF5C00"/>
</g>
<defs>
<clipPath id="clip0_1243_1421">
<rect width="80" height="80" fill="white"/>
</clipPath>
</defs>
</svg>
