<svg width="32" height="32" viewBox="0 0 32 32" fill="none" xmlns="http://www.w3.org/2000/svg">
<g clip-path="url(#clip0_1319_772)">
<path d="M16.5316 4.80778C16.362 4.64372 16.2266 4.44747 16.1335 4.23049C16.0404 4.0135 15.9914 3.78012 15.9893 3.54397C15.9873 3.30782 16.0322 3.07363 16.1216 2.85505C16.2109 2.63648 16.3428 2.43791 16.5096 2.27092C16.6764 2.10393 16.8748 1.97187 17.0931 1.88244C17.3115 1.79302 17.5454 1.74802 17.7813 1.75007C18.0172 1.75212 18.2503 1.80118 18.4671 1.89439C18.6838 1.9876 18.8799 2.12309 19.0437 2.29296L31.4798 14.7426C31.8129 15.0761 32 15.5284 32 16C32 16.4716 31.8129 16.9239 31.4798 17.2574L19.0437 29.707C18.7087 30.031 18.2599 30.2103 17.7941 30.2062C17.3283 30.2022 16.8827 30.0151 16.5533 29.6854C16.2239 29.3556 16.037 28.9095 16.033 28.4432C16.029 27.9769 16.208 27.5276 16.5316 27.1922L27.7117 16L16.5316 4.80778ZM11.7224 16L0.542371 27.1922C0.372689 27.3563 0.237345 27.5525 0.144235 27.7695C0.0511263 27.9865 0.00211693 28.2199 6.70786e-05 28.456C-0.00198278 28.6922 0.0429675 28.9264 0.132296 29.1449C0.221624 29.3635 0.353541 29.5621 0.52035 29.7291C0.687158 29.8961 0.885518 30.0281 1.10385 30.1176C1.32219 30.207 1.55613 30.252 1.79202 30.2499C2.02792 30.2479 2.26104 30.1988 2.47779 30.1056C2.69454 30.0124 2.89058 29.8769 3.05446 29.707L15.4906 17.2574C15.8236 16.9239 16.0107 16.4716 16.0107 16C16.0107 15.5284 15.8236 15.0761 15.4906 14.7426L3.05446 2.29296C2.89058 2.12309 2.69454 1.9876 2.47779 1.89439C2.26104 1.80118 2.02792 1.75212 1.79202 1.75007C1.55613 1.74802 1.32219 1.79302 1.10385 1.88244C0.885518 1.97187 0.687158 2.10393 0.52035 2.27092C0.353541 2.43791 0.221624 2.63648 0.132296 2.85505C0.0429675 3.07363 -0.00198278 3.30782 6.70786e-05 3.54397C0.00211693 3.78012 0.0511263 4.0135 0.144235 4.23049C0.237345 4.44747 0.372689 4.64372 0.542371 4.80778L11.7224 16Z" fill="#FF5C00"/>
</g>
<defs>
<clipPath id="clip0_1319_772">
<rect width="32" height="32" fill="white"/>
</clipPath>
</defs>
</svg>
