<svg width="140" height="140" viewBox="0 0 140 140" fill="none" xmlns="http://www.w3.org/2000/svg">
<path fill-rule="evenodd" clip-rule="evenodd" d="M70 0C31.4016 0 0 31.4016 0 70C0 108.598 31.4016 140 70 140C108.598 140 140 108.598 140 70C140 31.4016 108.598 0 70 0ZM111.016 53.5002V79.2192L101.576 70.4066C101.135 69.9956 100.551 69.7729 99.9486 69.786C99.3459 69.799 98.7722 70.0467 98.3495 70.4763L85.4268 83.6268L62.8409 62.3571C62.4394 61.979 61.9158 61.7568 61.3649 61.7309C60.8139 61.705 60.2718 61.877 59.8366 62.2158L41.8718 76.2322V53.5002C41.8731 52.223 42.3811 50.9985 43.2843 50.0954C44.1876 49.1924 45.4122 48.6846 46.6895 48.6836H106.197C107.475 48.6846 108.7 49.1925 109.603 50.0958C110.506 50.999 111.014 52.2238 111.016 53.5013V53.5002ZM33.8023 91.3161C32.525 91.315 31.3002 90.8071 30.3969 89.9039C29.4936 89.0007 28.9856 87.7761 28.9844 86.4987V41.866C28.9861 40.5889 29.4943 39.3645 30.3974 38.4615C31.3005 37.5585 32.5249 37.0505 33.8021 37.0489H93.3125C94.5897 37.0506 95.8141 37.5588 96.7172 38.462C97.6202 39.3652 98.1283 40.5896 98.1299 41.8668V44.0614H46.6875C44.1849 44.0644 41.7855 45.0599 40.0159 46.8296C38.2463 48.5993 37.2508 50.9987 37.2479 53.5013V91.3161H33.8023ZM106.197 102.951H46.6875C45.4102 102.95 44.1854 102.442 43.2821 101.538C42.3788 100.635 41.8708 99.4105 41.8696 98.1332V82.0955L61.1149 67.0791L91.5966 95.7852C92.0441 96.1987 92.6367 96.4188 93.2455 96.3976C93.8544 96.3765 94.4303 96.1157 94.8479 95.6721C95.2655 95.2286 95.4911 94.638 95.4756 94.029C95.4601 93.4199 95.2047 92.8417 94.765 92.42L88.7917 86.7956L100.068 75.3225L111.016 85.5386V98.1323C111.015 99.4099 110.507 100.635 109.603 101.538C108.7 102.442 107.475 102.95 106.197 102.951H106.197ZM84.1914 75.0288C82.6919 75.0291 81.2261 74.5847 79.9792 73.7519C78.7323 72.919 77.7604 71.7351 77.1864 70.3499C76.6124 68.9646 76.4621 67.4402 76.7545 65.9696C77.047 64.4989 77.769 63.148 78.8292 62.0877C79.8895 61.0274 81.2404 60.3053 82.7111 60.0128C84.1817 59.7204 85.7061 59.8706 87.0914 60.4445C88.4766 61.0184 89.6606 61.9903 90.4935 63.2372C91.3264 64.484 91.7708 65.9499 91.7706 67.4494C91.7678 69.4587 90.9684 71.3849 89.5477 72.8057C88.1269 74.2265 86.2007 75.026 84.1914 75.0288ZM84.1914 64.4886C84.7767 64.4883 85.349 64.6616 85.8358 64.9866C86.3226 65.3115 86.7021 65.7736 86.9264 66.3142C87.1506 66.8549 87.2095 67.4499 87.0956 68.024C86.9817 68.5981 86.7001 69.1256 86.2864 69.5397C85.8727 69.9537 85.3455 70.2358 84.7715 70.3503C84.1974 70.4647 83.6024 70.4064 83.0615 70.1827C82.5206 69.9589 82.0583 69.5798 81.7329 69.0933C81.4075 68.6068 81.2336 68.0347 81.2334 67.4494C81.2338 66.6647 81.5455 65.9123 82.1001 65.3572C82.6546 64.8022 83.4068 64.4898 84.1914 64.4886Z" fill="#FF9942"/>
</svg>
