<svg width="178" height="178" viewBox="0 0 178 178" fill="none" xmlns="http://www.w3.org/2000/svg">
<path fill-rule="evenodd" clip-rule="evenodd" d="M141.148 68.0233V100.722L129.147 89.5168C128.586 88.9944 127.843 88.7113 127.078 88.728C126.311 88.7447 125.582 89.0595 125.044 89.6058L108.614 106.326L79.8975 79.2829C79.3874 78.8017 78.7216 78.5191 78.0213 78.4863C77.3204 78.4535 76.6312 78.6721 76.0778 79.1026L53.237 96.9238V68.0216C53.2386 66.3979 53.8846 64.841 55.0329 63.6929C56.1813 62.5448 57.7382 61.8989 59.3624 61.8978H135.022C136.646 61.8989 138.204 62.5448 139.352 63.6934C140.501 64.8415 141.147 66.399 141.148 68.0233ZM42.9773 116.102C41.3532 116.101 39.796 115.455 38.6475 114.307C37.499 113.158 36.8531 111.601 36.8516 109.977V53.2297C36.8538 51.6059 37.4999 50.0492 38.6481 48.9011C39.7964 47.7529 41.3531 47.107 42.9769 47.105H118.64C120.264 47.1072 121.821 47.7533 122.969 48.9017C124.117 50.05 124.763 51.6068 124.765 53.2307V56.0211H59.3597C56.1779 56.025 53.1273 57.2904 50.8773 59.5405C48.6274 61.7905 47.3617 64.841 47.3581 68.0233V116.102H42.9773ZM135.022 130.895H59.3597C57.736 130.893 56.1785 130.247 55.0301 129.099C53.8817 127.95 53.2357 126.393 53.2342 124.769V104.379L77.7031 85.2865L116.459 121.784C117.027 122.31 117.781 122.59 118.555 122.562C119.329 122.536 120.062 122.204 120.592 121.64C121.123 121.076 121.41 120.325 121.39 119.551C121.37 118.777 121.046 118.042 120.487 117.506L112.892 110.354L127.229 95.7673L141.148 108.756V124.769C141.147 126.393 140.501 127.95 139.353 129.098C138.204 130.247 136.646 130.893 135.022 130.895ZM107.043 95.3935C105.137 95.3941 103.273 94.8289 101.688 93.7704C100.102 92.7113 98.8668 91.2061 98.137 89.445C97.4072 87.6834 97.2164 85.7454 97.5879 83.8758C97.9595 82.0057 98.8779 80.288 100.226 78.9402C101.574 77.5919 103.291 76.6741 105.161 76.3019C107.031 75.9304 108.969 76.1211 110.73 76.8509C112.492 77.5807 113.997 78.8162 115.056 80.4015C116.115 81.9868 116.68 83.8508 116.68 85.7571C116.676 88.3119 115.66 90.7605 113.853 92.5672C112.047 94.3739 109.598 95.3902 107.043 95.3935ZM107.043 81.9924C107.787 81.9924 108.515 82.2126 109.134 82.6259C109.753 83.0392 110.235 83.6266 110.521 84.3136C110.806 85.0011 110.881 85.7576 110.736 86.4874C110.591 87.2178 110.233 87.8881 109.707 88.4148C109.181 88.941 108.51 89.2998 107.781 89.4456C107.051 89.5907 106.294 89.5168 105.607 89.2325C104.919 88.9477 104.331 88.466 103.918 87.8475C103.504 87.2289 103.283 86.5013 103.282 85.7571C103.283 84.7597 103.679 83.803 104.384 83.0971C105.09 82.3912 106.046 81.994 107.043 81.9924Z" fill="#FF5C00"/>
</svg>
