<svg width="40" height="40" viewBox="0 0 40 40" fill="none" xmlns="http://www.w3.org/2000/svg">
<path d="M37.7153 39.9998H2.28463C1.02286 39.9998 0 38.4099 0 36.4485V3.55428C0 1.59292 1.02286 0.00292969 2.28463 0.00292969H37.7154C38.9771 0.00292969 40 1.59292 40 3.55428V36.4485C39.9999 38.4099 38.9771 39.9998 37.7153 39.9998Z" fill="#FF5C00"/>
<path d="M40.0006 15.0835H29.4991C31.1812 14.2206 32.4748 13.126 33.0475 11.8347C33.9686 9.75823 32.7124 8.06267 31.8816 7.23687C30.7998 6.16145 29.4847 5.70057 28.0818 5.90366C25.2308 6.31641 22.4797 9.48611 20.6465 12.1248V0H18.3368V12.1248C16.5034 9.48611 13.7524 6.31627 10.9013 5.90366C9.49703 5.70043 8.1833 6.16159 7.10169 7.23687C6.27086 8.06267 5.01482 9.75809 5.93578 11.8347C6.50849 13.126 7.80189 14.2208 9.48402 15.0835H0.00195312V17.2968H15.696C13.0299 19.3153 9.47266 22.8068 7.97287 27.8378C7.7977 28.4256 8.15281 29.038 8.76603 29.2058C8.872 29.2349 8.97886 29.2486 9.08393 29.2486C9.58655 29.2486 10.0488 28.9318 10.1938 28.4456C11.7516 23.2199 15.963 19.7773 18.3368 18.1888V40H20.6465V18.189C23.0203 19.7776 27.2315 23.2202 28.7893 28.4459C28.9343 28.932 29.3967 29.2489 29.8992 29.2489C30.0041 29.2489 30.1111 29.235 30.2171 29.2061C30.8303 29.0382 31.1854 28.4257 31.0102 27.8381C29.5103 22.8071 25.9532 19.3155 23.2871 17.2971H40.0005L40.0006 15.0835ZM8.0615 10.969C7.86362 10.523 7.72133 9.81007 8.76454 8.77303C9.34339 8.19758 9.85916 8.06926 10.2548 8.06926C10.3649 8.06926 10.4657 8.07914 10.5558 8.09217C11.9521 8.29382 13.7957 9.84044 15.7473 12.447C16.4252 13.3526 17.0156 14.252 17.471 14.9881C13.045 14.5736 8.90578 12.8729 8.0615 10.969ZM21.5117 14.9881C21.9627 14.259 22.5468 13.369 23.2194 12.4692C25.1768 9.84932 27.0262 8.29497 28.4269 8.09217C28.5173 8.079 28.6183 8.06911 28.7285 8.06911C29.1243 8.06911 29.64 8.19772 30.2189 8.77289C31.2621 9.80993 31.1197 10.5229 30.9218 10.9688C30.0773 12.8729 25.9377 14.5736 21.5117 14.9881Z" fill="white"/>
</svg>
