<svg width="48" height="25" viewBox="0 0 48 25" fill="none" xmlns="http://www.w3.org/2000/svg">
<path d="M0 3C0 1.34315 1.34315 0 3 0H45C46.6569 0 48 1.34315 48 3V22C48 23.6569 46.6569 25 45 25H3C1.34315 25 0 23.6569 0 22V3Z" fill="#FF5C00"/>
<path d="M8.03929 18.168C7.37662 18.168 6.76529 18.0467 6.20529 17.804C5.65462 17.552 5.20195 17.1973 4.84729 16.74L6.10729 15.228C6.63929 15.9467 7.24595 16.306 7.92729 16.306C8.85129 16.306 9.31329 15.7647 9.31329 14.682V10.02H5.86929V8.2H11.5673V14.556C11.5673 15.76 11.2686 16.6653 10.6713 17.272C10.074 17.8693 9.19662 18.168 8.03929 18.168ZM18.0495 8.2C18.9175 8.2 19.6688 8.34467 20.3035 8.634C20.9475 8.92333 21.4422 9.334 21.7875 9.866C22.1328 10.398 22.3055 11.028 22.3055 11.756C22.3055 12.4747 22.1328 13.1047 21.7875 13.646C21.4422 14.178 20.9475 14.5887 20.3035 14.878C19.6688 15.158 18.9175 15.298 18.0495 15.298H16.0755V18H13.8075V8.2H18.0495ZM17.9235 13.45C18.6048 13.45 19.1228 13.3053 19.4775 13.016C19.8322 12.7173 20.0095 12.2973 20.0095 11.756C20.0095 11.2053 19.8322 10.7853 19.4775 10.496C19.1228 10.1973 18.6048 10.048 17.9235 10.048H16.0755V13.45H17.9235ZM31.5127 16.18V18H23.9247V8.2H31.3307V10.02H26.1787V12.148H30.7287V13.912H26.1787V16.18H31.5127ZM39.9119 12.946H41.9839V16.922C41.4519 17.3233 40.8359 17.6313 40.1359 17.846C39.4359 18.0607 38.7313 18.168 38.0219 18.168C37.0046 18.168 36.0899 17.9533 35.2779 17.524C34.4659 17.0853 33.8266 16.4833 33.3599 15.718C32.9026 14.9433 32.6739 14.0707 32.6739 13.1C32.6739 12.1293 32.9026 11.2613 33.3599 10.496C33.8266 9.72133 34.4706 9.11933 35.2919 8.69C36.1133 8.25133 37.0373 8.032 38.0639 8.032C38.9226 8.032 39.7019 8.17667 40.4019 8.466C41.1019 8.75533 41.6899 9.17533 42.1659 9.726L40.7099 11.07C40.0099 10.3327 39.1653 9.964 38.1759 9.964C37.5506 9.964 36.9953 10.0947 36.5099 10.356C36.0246 10.6173 35.6466 10.986 35.3759 11.462C35.1053 11.938 34.9699 12.484 34.9699 13.1C34.9699 13.7067 35.1053 14.248 35.3759 14.724C35.6466 15.2 36.0199 15.5733 36.4959 15.844C36.9813 16.1053 37.5319 16.236 38.1479 16.236C38.8013 16.236 39.3893 16.096 39.9119 15.816V12.946Z" fill="white"/>
<path d="M3 0.633333H45V-0.633333H3V0.633333ZM47.3667 3V22H48.6333V3H47.3667ZM45 24.3667H3V25.6333H45V24.3667ZM0.633333 22V3H-0.633333V22H0.633333ZM3 24.3667C1.69293 24.3667 0.633333 23.3071 0.633333 22H-0.633333C-0.633333 24.0066 0.993365 25.6333 3 25.6333V24.3667ZM47.3667 22C47.3667 23.3071 46.3071 24.3667 45 24.3667V25.6333C47.0066 25.6333 48.6333 24.0066 48.6333 22H47.3667ZM45 0.633333C46.3071 0.633333 47.3667 1.69293 47.3667 3H48.6333C48.6333 0.993365 47.0066 -0.633333 45 -0.633333V0.633333ZM3 -0.633333C0.993365 -0.633333 -0.633333 0.993366 -0.633333 3H0.633333C0.633333 1.69293 1.69293 0.633333 3 0.633333V-0.633333Z" fill="#FF5C00"/>
</svg>
