<svg width="45" height="25" viewBox="0 0 45 25" fill="none" xmlns="http://www.w3.org/2000/svg">
<path d="M0 3C0 1.34315 1.34315 0 3 0H42C43.6569 0 45 1.34315 45 3V22C45 23.6569 43.6569 25 42 25H3C1.34315 25 0 23.6569 0 22V3Z" fill="#FF5C00"/>
<path d="M11.1535 18.168C10.4909 18.168 9.87955 18.0467 9.31955 17.804C8.76888 17.552 8.31621 17.1973 7.96155 16.74L9.22155 15.228C9.49221 15.5827 9.77688 15.8533 10.0755 16.04C10.3742 16.2173 10.6962 16.306 11.0415 16.306C11.9655 16.306 12.4275 15.7647 12.4275 14.682V10.02H8.98355V8.2H14.6815V14.556C14.6815 15.7693 14.3829 16.6747 13.7855 17.272C13.1882 17.8693 12.3109 18.168 11.1535 18.168ZM16.9218 18V8.2H21.1638C22.0411 8.2 22.7971 8.34467 23.4318 8.634C24.0664 8.914 24.5564 9.32 24.9018 9.852C25.2471 10.384 25.4198 11.0187 25.4198 11.756C25.4198 12.484 25.2471 13.114 24.9018 13.646C24.5564 14.178 24.0664 14.5887 23.4318 14.878C22.7971 15.158 22.0411 15.298 21.1638 15.298H18.1818L19.1898 14.276V18H16.9218ZM19.1898 14.528L18.1818 13.45H21.0378C21.7378 13.45 22.2604 13.3007 22.6058 13.002C22.9511 12.7033 23.1238 12.288 23.1238 11.756C23.1238 11.2147 22.9511 10.7947 22.6058 10.496C22.2604 10.1973 21.7378 10.048 21.0378 10.048H18.1818L19.1898 8.97V14.528ZM31.9077 18.168C31.133 18.168 30.419 18.0467 29.7657 17.804C29.1217 17.552 28.557 17.1973 28.0717 16.74C27.5957 16.2827 27.2223 15.746 26.9517 15.13C26.6903 14.514 26.5597 13.8373 26.5597 13.1C26.5597 12.3627 26.6903 11.686 26.9517 11.07C27.2223 10.454 27.6003 9.91733 28.0857 9.46C28.571 9.00267 29.1403 8.65267 29.7937 8.41C30.447 8.158 31.1657 8.032 31.9497 8.032C32.8177 8.032 33.597 8.17667 34.2877 8.466C34.9877 8.75533 35.5757 9.17533 36.0517 9.726L34.5957 11.07C34.241 10.6967 33.8537 10.4213 33.4337 10.244C33.0137 10.0573 32.5563 9.964 32.0617 9.964C31.5857 9.964 31.1517 10.0387 30.7597 10.188C30.3677 10.3373 30.027 10.552 29.7377 10.832C29.4577 11.112 29.2383 11.4433 29.0797 11.826C28.9303 12.2087 28.8557 12.6333 28.8557 13.1C28.8557 13.5573 28.9303 13.9773 29.0797 14.36C29.2383 14.7427 29.4577 15.0787 29.7377 15.368C30.027 15.648 30.363 15.8627 30.7457 16.012C31.1377 16.1613 31.567 16.236 32.0337 16.236C32.4817 16.236 32.9157 16.166 33.3357 16.026C33.765 15.8767 34.1803 15.6293 34.5817 15.284L35.8697 16.922C35.3377 17.3233 34.717 17.6313 34.0077 17.846C33.3077 18.0607 32.6077 18.168 31.9077 18.168ZM33.7977 16.628V12.946H35.8697V16.922L33.7977 16.628Z" fill="white"/>
<path d="M3 0.633333H42V-0.633333H3V0.633333ZM44.3667 3V22H45.6333V3H44.3667ZM42 24.3667H3V25.6333H42V24.3667ZM0.633333 22V3H-0.633333V22H0.633333ZM3 24.3667C1.69293 24.3667 0.633333 23.3071 0.633333 22H-0.633333C-0.633333 24.0066 0.993365 25.6333 3 25.6333V24.3667ZM44.3667 22C44.3667 23.3071 43.3071 24.3667 42 24.3667V25.6333C44.0066 25.6333 45.6333 24.0066 45.6333 22H44.3667ZM42 0.633333C43.3071 0.633333 44.3667 1.69293 44.3667 3H45.6333C45.6333 0.993365 44.0066 -0.633333 42 -0.633333V0.633333ZM3 -0.633333C0.993366 -0.633333 -0.633333 0.993366 -0.633333 3H0.633333C0.633333 1.69293 1.69293 0.633333 3 0.633333V-0.633333Z" fill="#FF5C00"/>
</svg>
