<svg width="89" height="61" viewBox="0 0 89 61" fill="none" xmlns="http://www.w3.org/2000/svg">
<g clip-path="url(#clip0_1417_1709)">
<path d="M0 8.43945C0 4.29732 3.32055 0.939453 7.41667 0.939453H81.5833C85.6794 0.939453 89 4.29732 89 8.43945V53.4395C89 57.5816 85.6794 60.9395 81.5833 60.9395H7.41666C3.32055 60.9395 0 57.5816 0 53.4395V8.43945Z" fill="white"/>
<g clip-path="url(#clip1_1417_1709)">
<path d="M34.9501 24.7344H30.8136C30.5306 24.7344 30.2898 24.9507 30.2457 25.2447L28.5727 36.4046C28.5394 36.6248 28.7015 36.8234 28.9138 36.8234H30.8886C31.1717 36.8234 31.4124 36.607 31.4566 36.3124L31.9078 33.3024C31.9513 33.0077 32.1927 32.7914 32.4751 32.7914H33.7846C36.5094 32.7914 38.082 31.4041 38.4927 28.655C38.6777 27.4523 38.5005 26.5073 37.9652 25.8455C37.3773 25.1187 36.3346 24.7344 34.9501 24.7344ZM35.4273 28.8103C35.2011 30.3719 34.0671 30.3719 32.9705 30.3719H32.3463L32.7842 27.4555C32.8102 27.2792 32.9554 27.1494 33.1247 27.1494H33.4108C34.1578 27.1494 34.8624 27.1494 35.2265 27.5974C35.4437 27.8646 35.5102 28.2617 35.4273 28.8103Z" fill="#253B80"/>
<path d="M47.3142 28.76H45.3334C45.1647 28.76 45.0189 28.8898 44.9929 29.0661L44.9052 29.649L44.7667 29.4377C44.3378 28.7829 43.3816 28.564 42.4272 28.564C40.2382 28.564 38.3687 30.3082 38.0046 32.7551C37.8153 33.9756 38.0844 35.1427 38.7425 35.9566C39.3461 36.705 40.2098 37.0168 41.2374 37.0168C43.0011 37.0168 43.9792 35.8236 43.9792 35.8236L43.8909 36.4027C43.8576 36.6241 44.0197 36.8227 44.2308 36.8227H46.0151C46.2987 36.8227 46.5382 36.6063 46.583 36.3117L47.6536 29.1787C47.6874 28.9591 47.5259 28.76 47.3142 28.76ZM44.5532 32.8161C44.362 34.0068 43.4638 34.8061 42.3183 34.8061C41.7431 34.8061 41.2834 34.612 40.9882 34.2441C40.6955 33.8789 40.5842 33.359 40.6774 32.7799C40.8558 31.5994 41.7691 30.7741 42.8971 30.7741C43.4596 30.7741 43.9169 30.9707 44.2181 31.3417C44.5199 31.7165 44.6396 32.2396 44.5532 32.8161Z" fill="#253B80"/>
<path d="M57.8638 28.7598H55.8732C55.6833 28.7598 55.5049 28.859 55.3972 29.0251L52.6519 33.2799L51.4882 29.1912C51.415 28.9354 51.1906 28.7598 50.9366 28.7598H48.9805C48.7428 28.7598 48.5777 29.0041 48.6533 29.2396L50.8458 36.0092L48.7845 39.0708C48.6224 39.3119 48.7857 39.6435 49.0658 39.6435H51.0539C51.2426 39.6435 51.4192 39.5468 51.5263 39.3839L58.1468 29.3293C58.3053 29.0888 58.1426 28.7598 57.8638 28.7598Z" fill="#253B80"/>
<path d="M64.454 24.7344H60.3169C60.0345 24.7344 59.7937 24.9507 59.7496 25.2447L58.0766 36.4046C58.0433 36.6248 58.2054 36.8234 58.4165 36.8234H60.5395C60.7367 36.8234 60.9054 36.6719 60.9363 36.4657L61.4111 33.3024C61.4546 33.0077 61.696 32.7914 61.9784 32.7914H63.2873C66.0127 32.7914 67.5847 31.4041 67.996 28.655C68.1817 27.4523 68.0032 26.5073 67.4679 25.8455C66.8806 25.1187 65.8385 24.7344 64.454 24.7344ZM64.9312 28.8103C64.7056 30.3719 63.5716 30.3719 62.4744 30.3719H61.8508L62.2893 27.4555C62.3153 27.2792 62.4593 27.1494 62.6292 27.1494H62.9153C63.6617 27.1494 64.3669 27.1494 64.731 27.5974C64.9482 27.8646 65.0141 28.2617 64.9312 28.8103Z" fill="#179BD7"/>
<path d="M76.8195 28.76H74.8398C74.6699 28.76 74.5253 28.8898 74.4999 29.0661L74.4122 29.649L74.2731 29.4377C73.8443 28.7829 72.8886 28.564 71.9342 28.564C69.7453 28.564 67.8763 30.3082 67.5122 32.7551C67.3235 33.9756 67.5914 35.1427 68.2495 35.9566C68.8544 36.705 69.7169 37.0168 70.7445 37.0168C72.5082 37.0168 73.4862 35.8236 73.4862 35.8236L73.3979 36.4027C73.3646 36.6241 73.5267 36.8227 73.739 36.8227H75.5227C75.8052 36.8227 76.0459 36.6063 76.09 36.3117L77.1612 29.1787C77.1939 28.9591 77.0318 28.76 76.8195 28.76ZM74.0584 32.8161C73.8685 34.0068 72.9691 34.8061 71.8235 34.8061C71.2495 34.8061 70.7886 34.612 70.4935 34.2441C70.2007 33.8789 70.0906 33.359 70.1826 32.7799C70.3622 31.5994 71.2743 30.7741 72.4023 30.7741C72.9648 30.7741 73.4221 30.9707 73.7233 31.3417C74.0263 31.7165 74.1461 32.2396 74.0584 32.8161Z" fill="#179BD7"/>
<path d="M79.1533 25.0401L77.4555 36.4043C77.4222 36.6245 77.5843 36.823 77.7954 36.823H79.5023C79.786 36.823 80.0267 36.6067 80.0702 36.312L81.7444 25.1528C81.7777 24.9326 81.6156 24.7334 81.4045 24.7334H79.4932C79.3245 24.734 79.1793 24.8639 79.1533 25.0401Z" fill="#179BD7"/>
<path d="M11.3956 38.9922L11.7119 36.8782L11.0073 36.861H7.64258L9.98088 21.2619C9.98814 21.2148 10.0117 21.1709 10.0462 21.1397C10.0807 21.1085 10.1248 21.0913 10.1708 21.0913H15.8442C17.7277 21.0913 19.0275 21.5037 19.7061 22.3176C20.0242 22.6994 20.2269 23.0984 20.3248 23.5375C20.4277 23.9982 20.4295 24.5487 20.3291 25.22L20.3218 25.269V25.6992L20.64 25.8889C20.9079 26.0384 21.1208 26.2096 21.2841 26.4056C21.5563 26.732 21.7323 27.1469 21.8067 27.6389C21.8835 28.1448 21.8581 28.7468 21.7323 29.4283C21.5871 30.2123 21.3525 30.8951 21.0355 31.4539C20.744 31.9687 20.3726 32.3957 19.9317 32.7266C19.5107 33.0409 19.0105 33.2796 18.445 33.4323C17.897 33.5825 17.2722 33.6582 16.5869 33.6582H16.1454C15.8297 33.6582 15.523 33.7779 15.2823 33.9923C15.041 34.2112 14.8813 34.5103 14.8323 34.8374L14.799 35.0277L14.2402 38.7536L14.2148 38.8904C14.2081 38.9337 14.1966 38.9553 14.1797 38.9699C14.1646 38.9833 14.1428 38.9922 14.1216 38.9922H11.3956Z" fill="#253B80"/>
<path d="M20.9396 25.3184C20.9226 25.4323 20.9033 25.5487 20.8815 25.6684C20.1333 29.7099 17.5736 31.1061 14.3045 31.1061H12.64C12.2402 31.1061 11.9033 31.4115 11.841 31.8264L10.9888 37.513L10.7474 39.1249C10.7069 39.3973 10.9065 39.6429 11.1678 39.6429H14.12C14.4696 39.6429 14.7666 39.3756 14.8216 39.0129L14.8507 38.8551L15.4065 35.1438L15.4422 34.9402C15.4966 34.5762 15.7942 34.3089 16.1438 34.3089H16.5853C19.4456 34.3089 21.6847 33.0871 22.3392 29.5515C22.6125 28.0745 22.471 26.8412 21.7476 25.9738C21.5287 25.7123 21.2571 25.4953 20.9396 25.3184Z" fill="#179BD7"/>
<path d="M20.1577 24.9901C20.0434 24.9551 19.9255 24.9232 19.8045 24.8946C19.6829 24.8666 19.5583 24.8418 19.4301 24.8202C18.9813 24.7438 18.4896 24.7075 17.9628 24.7075H13.516C13.4065 24.7075 13.3025 24.7336 13.2093 24.7807C13.0043 24.8844 12.8519 25.0887 12.815 25.3388L11.869 31.6426L11.8418 31.8265C11.9041 31.4116 12.241 31.1062 12.6408 31.1062H14.3053C17.5745 31.1062 20.1341 29.7093 20.8823 25.6684C20.9047 25.5488 20.9235 25.4323 20.9404 25.3184C20.7511 25.2128 20.546 25.1224 20.3253 25.0454C20.2708 25.0263 20.2146 25.0079 20.1577 24.9901Z" fill="#222D65"/>
<path d="M12.8149 25.3388C12.8518 25.0887 13.0042 24.8845 13.2093 24.7814C13.303 24.7343 13.4064 24.7082 13.5159 24.7082H17.9627C18.4895 24.7082 18.9812 24.7445 19.43 24.8208C19.5583 24.8425 19.6829 24.8673 19.8044 24.8953C19.9254 24.9239 20.0433 24.9557 20.1577 24.9907C20.2145 25.0085 20.2708 25.027 20.3258 25.0455C20.5466 25.1225 20.7516 25.2135 20.9409 25.3185C21.1635 23.8249 20.9391 22.808 20.1716 21.8872C19.3254 20.8735 17.7982 20.4395 15.8439 20.4395H10.1706C9.77136 20.4395 9.43084 20.7449 9.36915 21.1605L7.00604 36.92C6.95947 37.2318 7.1881 37.5131 7.48689 37.5131H10.9895L11.8689 31.6426L12.8149 25.3388Z" fill="#253B80"/>
</g>
</g>
<defs>
<clipPath id="clip0_1417_1709">
<rect width="89" height="60" fill="white" transform="translate(0 0.939453)"/>
</clipPath>
<clipPath id="clip1_1417_1709">
<rect width="75" height="21" fill="white" transform="translate(7 20.4395)"/>
</clipPath>
</defs>
</svg>
