<svg width="89" height="61" viewBox="0 0 89 61" fill="none" xmlns="http://www.w3.org/2000/svg">
<path d="M0 8.43945C0 4.29732 3.32055 0.939453 7.41667 0.939453H81.5833C85.6794 0.939453 89 4.29732 89 8.43945V53.4395C89 57.5816 85.6794 60.9395 81.5833 60.9395H7.41666C3.32055 60.9395 0 57.5816 0 53.4395V8.43945Z" fill="white"/>
<g clip-path="url(#clip0_1270_934)">
<path d="M81.7285 25.7338C81.0481 23.8332 79.1939 22.4683 77.0161 22.4683H76.9705C75.5547 22.4683 74.2788 23.0441 73.3705 23.9683C72.4607 23.0441 71.1848 22.4683 69.7706 22.4683H69.725C68.4805 22.4683 67.3428 22.9136 66.4692 23.6505V23.2759C66.4393 22.9028 66.1251 22.6096 65.7369 22.6096H62.3962C61.9877 22.6096 61.6577 22.932 61.6577 23.3327V41.0574C61.6577 41.4581 61.9877 41.7805 62.3962 41.7805H65.7369C66.1093 41.7805 66.4158 41.5087 66.4645 41.1571L66.4629 28.4328C66.4629 28.3883 66.4645 28.3469 66.4692 28.3054C66.5226 27.7374 66.9484 27.2707 67.621 27.2123H67.7451H68.0955H68.2369C68.5182 27.2369 68.7555 27.3336 68.9425 27.4794C69.2332 27.7051 69.395 28.0521 69.395 28.4328L69.4076 41.0942C69.4076 41.4949 69.7391 41.8188 70.1461 41.8188H73.4868C73.8812 41.8188 74.2018 41.5118 74.2206 41.1295L74.2191 28.416C74.2175 27.9984 74.4155 27.6207 74.7627 27.3965C74.934 27.2891 75.1399 27.2169 75.3771 27.1954H75.5013H75.8517H75.9931C76.7159 27.2568 77.1528 27.7926 77.1512 28.416L77.1638 41.0604C77.1638 41.4611 77.4953 41.7835 77.9023 41.7835H81.243C81.65 41.7835 81.9815 41.4611 81.9815 41.0604V27.461C81.9815 26.5337 81.8747 26.1392 81.7285 25.7338Z" fill="#54C1F0"/>
<path d="M59.1129 22.655H57.2021V19.6306C57.2021 19.6275 57.2021 19.6244 57.2021 19.6213C57.2021 19.2575 56.9005 18.9627 56.528 18.9627C56.484 18.9627 56.4416 18.9689 56.4008 18.9765C54.2826 19.5446 54.7069 22.4109 50.8398 22.655H50.7534H50.4642C50.4077 22.655 50.3542 22.6627 50.3024 22.6735H50.2992L50.3024 22.675C49.9724 22.7472 49.7241 23.0327 49.7241 23.3766V26.6406C49.7241 27.0382 50.0557 27.3622 50.4642 27.3622H52.4803L52.4771 41.2026C52.4771 41.5972 52.804 41.9165 53.2078 41.9165H56.5108C56.913 41.9165 57.2399 41.5972 57.2399 41.2026L57.2414 27.3622H59.1129C59.5199 27.3622 59.8514 27.0382 59.8514 26.6406V23.3766C59.8514 22.979 59.5199 22.655 59.1129 22.655Z" fill="#54C1F0"/>
<path d="M47.0938 22.6558H43.7531C43.3461 22.6558 43.0162 22.9797 43.0162 23.3774V30.1264C43.0083 30.544 42.6626 30.8787 42.2336 30.8787H40.8351C40.4014 30.8787 40.051 30.5379 40.051 30.1141L40.0385 23.3774C40.0385 22.9797 39.7069 22.6558 39.2999 22.6558H35.9592C35.5507 22.6558 35.2207 22.9797 35.2207 23.3774V30.7743C35.2207 33.5838 37.2713 35.5874 40.1484 35.5874C40.1484 35.5874 42.3075 35.5874 42.3735 35.5996C42.7632 35.6426 43.0664 35.962 43.0664 36.355C43.0664 36.7434 42.7694 37.0612 42.3845 37.1088C42.3656 37.1119 42.3483 37.1165 42.3279 37.1196L37.4426 37.1364C37.034 37.1364 36.7041 37.4604 36.7041 37.858V41.1205C36.7041 41.5196 37.034 41.842 37.4426 41.842H42.9046C45.7833 41.842 47.8323 39.8401 47.8323 37.029V23.3774C47.8323 22.9797 47.5023 22.6558 47.0938 22.6558Z" fill="#233266"/>
<path d="M14.757 28.6362V30.1592V30.6504C14.757 31.0726 14.4066 31.4165 13.9745 31.4165L11.8547 31.4181V27.3819H13.9745C14.4066 27.3819 14.757 27.7227 14.757 28.1464V28.6362ZM15.0509 22.6548H7.7488C7.34811 22.6548 7.02441 22.9726 7.02441 23.3625V26.5605C7.02441 26.5666 7.02599 26.5728 7.02599 26.5789C7.02599 26.5943 7.02441 26.6096 7.02441 26.6234V36.8806V41.0979C7.02441 41.491 7.32611 41.8118 7.70009 41.821H7.76295H11.1036C11.5106 41.821 11.8422 41.4986 11.8422 41.0995L11.8547 36.139H15.0509C17.7253 36.139 19.5889 34.3259 19.5889 31.7021V27.0978C19.5889 24.4741 17.7253 22.6548 15.0509 22.6548Z" fill="#233266"/>
<path d="M28.6187 36.2977V36.8074C28.6187 36.8489 28.6124 36.8888 28.6062 36.9272C28.5983 36.964 28.5873 36.9993 28.5747 37.0331C28.471 37.3187 28.1787 37.5259 27.8315 37.5259H26.4408C26.0071 37.5259 25.6536 37.2035 25.6536 36.8074V36.1918C25.6536 36.1841 25.652 36.1764 25.652 36.1687L25.6536 34.5306V34.5275V34.3464V34.0178L25.6552 34.0132C25.6567 33.6187 26.0071 33.2993 26.4408 33.2993H27.8315C28.2667 33.2993 28.6187 33.6202 28.6187 34.0178V36.2977ZM28.0876 22.6722H23.4521C23.042 22.6722 22.7105 22.9762 22.7105 23.3493V24.6189C22.7105 24.6266 22.712 24.6358 22.712 24.6435C22.712 24.6527 22.7105 24.6619 22.7105 24.6711V26.4106C22.7105 26.8051 23.0624 27.1276 23.4961 27.1276H27.91C28.2589 27.1813 28.5354 27.43 28.5747 27.8184V28.2391C28.5354 28.6091 28.262 28.8793 27.9289 28.91H25.7432C22.8362 28.91 20.7651 30.7968 20.7651 33.4467V37.1452V37.2419C20.7651 39.8764 22.5455 41.751 25.432 41.751H31.4896C32.5769 41.751 33.4585 40.9465 33.4585 39.9562V27.5712C33.4585 24.5683 31.8746 22.6722 28.0876 22.6722Z" fill="#233266"/>
</g>
<defs>
<clipPath id="clip0_1270_934">
<rect width="75" height="23" fill="white" transform="translate(7 18.9395)"/>
</clipPath>
</defs>
</svg>
