<svg width="32" height="40" viewBox="0 0 32 40" fill="none" xmlns="http://www.w3.org/2000/svg">
<path fill-rule="evenodd" clip-rule="evenodd" d="M14 4H3.99094L4 36L27.9957 36C27.9957 36 28.0002 24.3434 28.0001 18H16C14.8954 18 14 17.1046 14 16V4ZM18 14H28L18 4V14ZM3.99094 0H18.6056C19.1574 0 19.9236 0.318977 20.3067 0.702201L31.2981 11.6977C31.6857 12.0855 32 12.8559 32 13.3985V36.0015C32 38.2098 30.211 40 27.9957 40H4.00426C1.79277 40 0 38.2036 0 36V4.00003C0 1.79087 1.79176 0 3.99094 0ZM22.9626 26C21.3057 26 19.9626 24.6569 19.9626 23C19.9626 21.3431 21.3057 20 22.9626 20C24.6194 20 25.9626 21.3431 25.9626 23C25.9626 24.6569 24.6194 26 22.9626 26ZM9.89122 23.9448C10.3461 22.9335 11.2647 22.8239 11.9367 23.6918L14.8188 27.4145C15.4936 28.2861 16.7568 28.4702 17.6554 27.8146L18.2334 27.3929C19.1252 26.7423 20.3269 26.9755 20.9113 27.9041L23.6846 32.3107C24.2717 33.2437 23.8519 34 22.7468 34H7.36956C6.26449 34 5.73612 33.183 6.19228 32.1688L9.89122 23.9448Z" fill="#DADADA"/>
</svg>
