<svg width="45" height="25" viewBox="0 0 45 25" fill="none" xmlns="http://www.w3.org/2000/svg">
<path d="M0 3C0 1.34315 1.34315 0 3 0H42C43.6569 0 45 1.34315 45 3V22C45 23.6569 43.6569 25 42 25H3C1.34315 25 0 23.6569 0 22V3Z" fill="#FF5C00"/>
<path d="M7.54969 18V8.2H11.7917C12.669 8.2 13.425 8.34467 14.0597 8.634C14.6944 8.914 15.1844 9.32 15.5297 9.852C15.875 10.384 16.0477 11.0187 16.0477 11.756C16.0477 12.484 15.875 13.114 15.5297 13.646C15.1844 14.178 14.6944 14.5887 14.0597 14.878C13.425 15.158 12.669 15.298 11.7917 15.298H8.80969L9.81769 14.276V18H7.54969ZM9.81769 14.528L8.80969 13.45H11.6657C12.3657 13.45 12.8884 13.3007 13.2337 13.002C13.579 12.7033 13.7517 12.288 13.7517 11.756C13.7517 11.2147 13.579 10.7947 13.2337 10.496C12.8884 10.1973 12.3657 10.048 11.6657 10.048H8.80969L9.81769 8.97V14.528ZM17.6669 18V8.2H19.5429L25.3249 15.256H24.4149V8.2H26.6549V18H24.7929L18.9969 10.944H19.9069V18H17.6669ZM33.7055 18.168C32.9309 18.168 32.2169 18.0467 31.5635 17.804C30.9195 17.552 30.3549 17.1973 29.8695 16.74C29.3935 16.2827 29.0202 15.746 28.7495 15.13C28.4882 14.514 28.3575 13.8373 28.3575 13.1C28.3575 12.3627 28.4882 11.686 28.7495 11.07C29.0202 10.454 29.3982 9.91733 29.8835 9.46C30.3689 9.00267 30.9382 8.65267 31.5915 8.41C32.2449 8.158 32.9635 8.032 33.7475 8.032C34.6155 8.032 35.3949 8.17667 36.0855 8.466C36.7855 8.75533 37.3735 9.17533 37.8495 9.726L36.3935 11.07C36.0389 10.6967 35.6515 10.4213 35.2315 10.244C34.8115 10.0573 34.3542 9.964 33.8595 9.964C33.3835 9.964 32.9495 10.0387 32.5575 10.188C32.1655 10.3373 31.8249 10.552 31.5355 10.832C31.2555 11.112 31.0362 11.4433 30.8775 11.826C30.7282 12.2087 30.6535 12.6333 30.6535 13.1C30.6535 13.5573 30.7282 13.9773 30.8775 14.36C31.0362 14.7427 31.2555 15.0787 31.5355 15.368C31.8249 15.648 32.1609 15.8627 32.5435 16.012C32.9355 16.1613 33.3649 16.236 33.8315 16.236C34.2795 16.236 34.7135 16.166 35.1335 16.026C35.5629 15.8767 35.9782 15.6293 36.3795 15.284L37.6675 16.922C37.1355 17.3233 36.5149 17.6313 35.8055 17.846C35.1055 18.0607 34.4055 18.168 33.7055 18.168ZM35.5955 16.628V12.946H37.6675V16.922L35.5955 16.628Z" fill="white"/>
<path d="M3 0.633333H42V-0.633333H3V0.633333ZM44.3667 3V22H45.6333V3H44.3667ZM42 24.3667H3V25.6333H42V24.3667ZM0.633333 22V3H-0.633333V22H0.633333ZM3 24.3667C1.69293 24.3667 0.633333 23.3071 0.633333 22H-0.633333C-0.633333 24.0066 0.993365 25.6333 3 25.6333V24.3667ZM44.3667 22C44.3667 23.3071 43.3071 24.3667 42 24.3667V25.6333C44.0066 25.6333 45.6333 24.0066 45.6333 22H44.3667ZM42 0.633333C43.3071 0.633333 44.3667 1.69293 44.3667 3H45.6333C45.6333 0.993365 44.0066 -0.633333 42 -0.633333V0.633333ZM3 -0.633333C0.993366 -0.633333 -0.633333 0.993366 -0.633333 3H0.633333C0.633333 1.69293 1.69293 0.633333 3 0.633333V-0.633333Z" fill="#FF5C00"/>
</svg>
